<mxfile host="app.diagrams.net" modified="2022-01-04T06:11:49.462Z" agent="5.0 (Macintosh; Intel Mac OS X 10_15_7) AppleWebKit/537.36 (KHTML, like Gecko) Chrome/96.0.4664.110 Safari/537.36" etag="K0dOPX7WNOZbrACeA4TM" version="16.1.4" type="github">
  <diagram id="GUARsNJA_cFelt5hUoZr" name="Page-1">
    <mxGraphModel dx="2066" dy="1072" grid="1" gridSize="10" guides="1" tooltips="1" connect="1" arrows="1" fold="1" page="1" pageScale="1" pageWidth="827" pageHeight="1169" math="0" shadow="0">
      <root>
        <mxCell id="0" />
        <mxCell id="1" parent="0" />
        <mxCell id="5cnYhcWNnVgeZXv-qOHH-1" value="&lt;font style=&quot;font-size: 14px&quot;&gt;Come on, she is gone, cheer up, ok?&lt;/font&gt;" style="rounded=1;whiteSpace=wrap;html=1;fillColor=#cdeb8b;strokeColor=#36393d;" parent="1" vertex="1">
          <mxGeometry x="80" y="360" width="160" height="40" as="geometry" />
        </mxCell>
        <mxCell id="5cnYhcWNnVgeZXv-qOHH-2" value="&lt;font style=&quot;font-size: 14px&quot;&gt;ok.&lt;/font&gt;" style="rounded=1;whiteSpace=wrap;html=1;fillColor=#cce5ff;strokeColor=#36393d;" parent="1" vertex="1">
          <mxGeometry x="180" y="420" width="80" height="40" as="geometry" />
        </mxCell>
        <mxCell id="5cnYhcWNnVgeZXv-qOHH-3" value="&lt;font style=&quot;font-size: 14px&quot;&gt;Bring me a cup of water.&lt;/font&gt;" style="rounded=1;whiteSpace=wrap;html=1;fillColor=#cdeb8b;strokeColor=#36393d;" parent="1" vertex="1">
          <mxGeometry x="300" y="360" width="160" height="40" as="geometry" />
        </mxCell>
        <mxCell id="5cnYhcWNnVgeZXv-qOHH-4" value="&lt;font style=&quot;font-size: 14px&quot;&gt;ok.&lt;/font&gt;" style="rounded=1;whiteSpace=wrap;html=1;fillColor=#cce5ff;strokeColor=#36393d;" parent="1" vertex="1">
          <mxGeometry x="400" y="420" width="80" height="40" as="geometry" />
        </mxCell>
        <mxCell id="5cnYhcWNnVgeZXv-qOHH-5" value="" style="endArrow=none;html=1;" parent="1" edge="1">
          <mxGeometry width="50" height="50" relative="1" as="geometry">
            <mxPoint x="280" y="520" as="sourcePoint" />
            <mxPoint x="280" y="340" as="targetPoint" />
          </mxGeometry>
        </mxCell>
        <mxCell id="5cnYhcWNnVgeZXv-qOHH-6" value="" style="endArrow=none;html=1;" parent="1" edge="1">
          <mxGeometry width="50" height="50" relative="1" as="geometry">
            <mxPoint x="80" y="480" as="sourcePoint" />
            <mxPoint x="480" y="480" as="targetPoint" />
          </mxGeometry>
        </mxCell>
        <mxCell id="5cnYhcWNnVgeZXv-qOHH-7" value="&lt;font style=&quot;font-size: 14px&quot;&gt;&lt;b&gt;Sadness&lt;/b&gt;&lt;/font&gt;" style="text;html=1;strokeColor=none;fillColor=none;align=center;verticalAlign=middle;whiteSpace=wrap;rounded=0;" parent="1" vertex="1">
          <mxGeometry x="90" y="490" width="40" height="20" as="geometry" />
        </mxCell>
        <mxCell id="5cnYhcWNnVgeZXv-qOHH-9" value="&lt;font style=&quot;font-size: 14px&quot;&gt;&lt;b&gt;Sadness&lt;/b&gt;&lt;/font&gt;" style="text;html=1;strokeColor=none;fillColor=none;align=center;verticalAlign=middle;whiteSpace=wrap;rounded=0;" parent="1" vertex="1">
          <mxGeometry x="220" y="490" width="40" height="20" as="geometry" />
        </mxCell>
        <mxCell id="5cnYhcWNnVgeZXv-qOHH-10" value="&lt;font style=&quot;font-size: 14px&quot;&gt;&lt;b&gt;Neutral&lt;/b&gt;&lt;/font&gt;" style="text;html=1;strokeColor=none;fillColor=none;align=center;verticalAlign=middle;whiteSpace=wrap;rounded=0;" parent="1" vertex="1">
          <mxGeometry x="290" y="490" width="40" height="20" as="geometry" />
        </mxCell>
        <mxCell id="5cnYhcWNnVgeZXv-qOHH-12" value="&lt;font style=&quot;font-size: 14px&quot;&gt;&lt;b&gt;Neutral&lt;/b&gt;&lt;/font&gt;" style="text;html=1;strokeColor=none;fillColor=none;align=center;verticalAlign=middle;whiteSpace=wrap;rounded=0;" parent="1" vertex="1">
          <mxGeometry x="430" y="490" width="40" height="20" as="geometry" />
        </mxCell>
        <mxCell id="5cnYhcWNnVgeZXv-qOHH-14" value="" style="shape=singleArrow;whiteSpace=wrap;html=1;" parent="1" vertex="1">
          <mxGeometry x="360" y="490" width="40" height="20" as="geometry" />
        </mxCell>
        <mxCell id="5cnYhcWNnVgeZXv-qOHH-16" value="" style="shape=singleArrow;whiteSpace=wrap;html=1;" parent="1" vertex="1">
          <mxGeometry x="160" y="490" width="40" height="20" as="geometry" />
        </mxCell>
      </root>
    </mxGraphModel>
  </diagram>
</mxfile>
